<svg id="Capa_1" enable-background="new 0 0 497 497" height="512" viewBox="0 0 497 497" width="512" xmlns="http://www.w3.org/2000/svg"><g><path d="m29.002 64.878c-3.703 1.874-7.267 3.764-10.648 5.67-2.037 1.148-3.118 3.697-3.118 6.283 0 32.828 14.814 224.478 57.229 297.248 25.251 43.323 108.458 89.465 148.46 101.202.995.292 2.031.292 3.026 0 5.397-1.584 11.587-3.799 18.309-6.544z" fill="#ffd064"/><path d="m426.523 70.548c-63.699-35.911-189.091-66.651-202.641-70.353-.953-.26-1.933-.26-2.886 0-12.831 3.506-125.937 31.256-191.994 64.683 3.639 85.747 19.785 240.024 55.41 301.145 22.677 38.906 95.167 81.802 157.849 102.715 26.287-10.734 60.8-29.646 88.681-51.271l94.269-274.835c3.072-31.356 4.43-55.86 4.43-65.801 0-2.586-1.081-5.134-3.118-6.283z" fill="#fff0af"/><path d="m372.416 374.079c29.572-50.735 45.726-159.253 52.799-231.447-1.356-.406-2.789-.632-4.273-.632h-75c-8.25 0-15 6.75-15 15v260.465c17.83-13.83 32.953-28.767 41.474-43.386z" fill="#ffd064"/><path d="m222.441 30.833-154.458 49.187c-8.712 3.644-16.103 7.014-22.368 10.092.403 8.576 1.13 19.436 2.191 31.888 0 0 6.817 67.184 13.109 105 0 0 31.035 93.774 47.471 121.973 17.951 30.799 114.052 95.27 114.052 95.27l.003-.002.003.002c39.51-13.933 106.102-54.471 124.052-85.27 16.436-28.199 28.813-79.937 37.471-131.973 6.292-37.816 13.109-105 13.109-105 1.061-12.452 1.788-23.311 2.191-31.888-28.814-14.159-81.449-34.479-176.826-59.279z" fill="#81a9c8"/><path d="m365.941 227 33.326-85h-53.326c-8.25 0-15 6.75-15 15v70z" fill="#4980ac"/><path d="m222.44 418.069c-38.641-18.189-87.14-50.505-102.055-76.097-14.642-25.12-26.064-68.921-34.505-114.972h-24.966c8.658 52.036 21.035 103.774 37.471 131.973 17.951 30.799 84.542 71.337 124.052 85.27z" fill="#4980ac"/><path d="m222.439 227-.001 191.068c.001 0 .001.001.002.001 26.635-11.41 78.662-37.212 108.501-60.17v-130.899z" fill="#bcd1e1"/><path d="m222.441 30.833c-74.641 19.408-123.103 36.072-154.458 49.187 1.952 33.369 7.781 91.782 17.898 146.98h136.559z" fill="#bcd1e1"/><g fill="#e9edf1"><path d="m440.941 497h-75c-8.25 0-15-6.75-15-15v-75c0-8.25 6.75-15 15-15h75c8.25 0 15 6.75 15 15v75c0 8.25-6.75 15-15 15z"/><path d="m440.941 362h-75c-8.25 0-15-6.75-15-15v-75c0-8.25 6.75-15 15-15h75c8.25 0 15 6.75 15 15v75c0 8.25-6.75 15-15 15z"/><path d="m440.941 227h-75c-8.25 0-15-6.75-15-15v-75c0-8.25 6.75-15 15-15h75c8.25 0 15 6.75 15 15v75c0 8.25-6.75 15-15 15z"/></g><path d="m405.972 467.791c-1.919 0-3.839-.732-5.304-2.196l-25.031-25.031c-2.929-2.93-2.929-7.678 0-10.607 2.93-2.928 7.678-2.928 10.607 0l19.728 19.729 62.987-62.988c2.93-2.928 7.678-2.928 10.607 0 2.929 2.93 2.929 7.678 0 10.607l-68.291 68.291c-1.464 1.463-3.384 2.195-5.303 2.195z" fill="#a2abb8"/><path d="m405.972 332.791c-1.919 0-3.839-.732-5.304-2.196l-25.031-25.031c-2.929-2.93-2.929-7.678 0-10.607 2.93-2.928 7.678-2.928 10.607 0l19.728 19.729 62.987-62.988c2.93-2.928 7.678-2.928 10.607 0 2.929 2.93 2.929 7.678 0 10.607l-68.291 68.291c-1.464 1.463-3.384 2.195-5.303 2.195z" fill="#a2abb8"/><path d="m405.972 197.791c-1.919 0-3.839-.732-5.304-2.196l-25.031-25.031c-2.929-2.93-2.929-7.678 0-10.607 2.93-2.928 7.678-2.928 10.607 0l19.728 19.729 62.987-62.988c2.93-2.928 7.678-2.928 10.607 0 2.929 2.93 2.929 7.678 0 10.607l-68.291 68.291c-1.464 1.463-3.384 2.195-5.303 2.195z" fill="#a2abb8"/></g></svg>